<svg id="Layer_1" data-name="Layer 1" xmlns="http://www.w3.org/2000/svg" viewBox="0 0 334.96 154.75"><defs><style>.cls-1{fill:#fff;}.cls-2{fill:#27aae1;}</style></defs><path class="cls-1" d="M267.68,369.48a6.21,6.21,0,0,1-3.33-.87,5.62,5.62,0,0,1-2.16-2.41,8.91,8.91,0,0,1,0-7.2,5.67,5.67,0,0,1,2.17-2.42,6.31,6.31,0,0,1,3.32-.86,5.91,5.91,0,0,1,3.64,1,4.8,4.8,0,0,1,1.79,3h-1.46a3.61,3.61,0,0,0-1.29-2.08,4.15,4.15,0,0,0-2.68-.79,4.83,4.83,0,0,0-2.57.68,4.59,4.59,0,0,0-1.71,2,8,8,0,0,0,0,6.14,4.57,4.57,0,0,0,1.71,2,4.75,4.75,0,0,0,2.57.69,4.21,4.21,0,0,0,2.68-.78,3.57,3.57,0,0,0,1.29-2.05h1.46a4.87,4.87,0,0,1-1.79,2.93A5.79,5.79,0,0,1,267.68,369.48Z" transform="translate(-109.49 -218.91)"/><path class="cls-1" d="M279.61,369.48a4.59,4.59,0,0,1-2.36-.62,4.34,4.34,0,0,1-1.67-1.75,6.13,6.13,0,0,1,0-5.31,4.36,4.36,0,0,1,1.69-1.74,4.92,4.92,0,0,1,4.78,0,4.42,4.42,0,0,1,1.66,1.74,5.61,5.61,0,0,1,.61,2.68,5.41,5.41,0,0,1-.62,2.63,4.43,4.43,0,0,1-1.68,1.75A4.68,4.68,0,0,1,279.61,369.48Zm0-1.14a3.15,3.15,0,0,0,2.86-1.74,4.48,4.48,0,0,0,.47-2.14,4.59,4.59,0,0,0-.46-2.15,3.12,3.12,0,0,0-1.21-1.28,3.29,3.29,0,0,0-1.64-.43A3.23,3.23,0,0,0,278,361a3.28,3.28,0,0,0-1.22,1.28,4.43,4.43,0,0,0-.47,2.14,4.61,4.61,0,0,0,.46,2.14,3.15,3.15,0,0,0,2.83,1.74Z" transform="translate(-109.49 -218.91)"/><path class="cls-1" d="M286.61,369.25v-9.58h1.21l.1,1.45a3,3,0,0,1,1.21-1.24,3.5,3.5,0,0,1,1.73-.44,4,4,0,0,1,1.33.21,3,3,0,0,1,1.07.63,3.18,3.18,0,0,1,.74,1.08,3.36,3.36,0,0,1,1.32-1.4,3.5,3.5,0,0,1,1.85-.52,4,4,0,0,1,1.92.44,3,3,0,0,1,1.27,1.33,5.17,5.17,0,0,1,.44,2.26v5.78h-1.33v-5.63a3.47,3.47,0,0,0-.62-2.27,2.13,2.13,0,0,0-1.75-.75,2.51,2.51,0,0,0-1.39.41,2.67,2.67,0,0,0-1,1.18,4.5,4.5,0,0,0-.35,1.91v5.15h-1.33v-5.63a3.47,3.47,0,0,0-.63-2.27,2.13,2.13,0,0,0-1.73-.75,2.51,2.51,0,0,0-1.41.41,2.69,2.69,0,0,0-1,1.2,4.65,4.65,0,0,0-.36,2v5.09Z" transform="translate(-109.49 -218.91)"/><path class="cls-1" d="M303.31,369.25v-9.58h1.22l.09,1.45a3,3,0,0,1,1.22-1.24,3.48,3.48,0,0,1,1.73-.44,4.08,4.08,0,0,1,1.33.21,3,3,0,0,1,1.06.63,3,3,0,0,1,.74,1.08A3.49,3.49,0,0,1,312,360a3.53,3.53,0,0,1,1.86-.52,4.06,4.06,0,0,1,1.92.44,3,3,0,0,1,1.26,1.33,5,5,0,0,1,.45,2.26v5.78h-1.33v-5.63a3.53,3.53,0,0,0-.62-2.27,2.15,2.15,0,0,0-1.76-.75,2.51,2.51,0,0,0-1.39.41,2.74,2.74,0,0,0-1,1.18,4.66,4.66,0,0,0-.35,1.91v5.15h-1.33v-5.63a3.47,3.47,0,0,0-.63-2.27,2.11,2.11,0,0,0-1.72-.75A2.52,2.52,0,0,0,306,361a2.75,2.75,0,0,0-1,1.2,4.65,4.65,0,0,0-.36,2v5.09Z" transform="translate(-109.49 -218.91)"/><path class="cls-1" d="M324.12,369.48a4.37,4.37,0,0,1-2.35-.63,4.25,4.25,0,0,1-1.59-1.76,5.66,5.66,0,0,1-.58-2.65,5.77,5.77,0,0,1,.57-2.64,4.15,4.15,0,0,1,1.6-1.74,4.6,4.6,0,0,1,2.39-.62,4.21,4.21,0,0,1,2.35.63,4.1,4.1,0,0,1,1.48,1.64,4.9,4.9,0,0,1,.5,2.2v.39c0,.13,0,.29,0,.46H320.6v-1.12h6.6a2.94,2.94,0,0,0-3.1-3.06,3.36,3.36,0,0,0-1.58.39,3,3,0,0,0-1.19,1.14,3.72,3.72,0,0,0-.44,1.89v.5a4.47,4.47,0,0,0,.46,2.15,3.16,3.16,0,0,0,1.21,1.27,3.1,3.1,0,0,0,1.56.42,3,3,0,0,0,1.79-.49,2.67,2.67,0,0,0,1-1.34h1.31a4,4,0,0,1-.78,1.51,3.86,3.86,0,0,1-1.38,1.07A4.57,4.57,0,0,1,324.12,369.48Z" transform="translate(-109.49 -218.91)"/><path class="cls-1" d="M330.66,369.25v-9.58h1.21l.1,1.84a3.39,3.39,0,0,1,.81-1.12,3.85,3.85,0,0,1,1.24-.7,5.16,5.16,0,0,1,1.63-.25v1.39h-.51A4.25,4.25,0,0,0,334,361a2.74,2.74,0,0,0-1,.54,2.8,2.8,0,0,0-.7,1,4.21,4.21,0,0,0-.26,1.61v5.08Z" transform="translate(-109.49 -218.91)"/><path class="cls-1" d="M341.32,369.48a4.52,4.52,0,0,1-2.37-.63,4.41,4.41,0,0,1-1.66-1.76,6,6,0,0,1,0-5.26,4.58,4.58,0,0,1,1.66-1.75,4.52,4.52,0,0,1,2.37-.64,4.38,4.38,0,0,1,2.78.87,3.84,3.84,0,0,1,1.42,2.29h-1.33a2.27,2.27,0,0,0-1-1.47,3.31,3.31,0,0,0-1.87-.53,3.11,3.11,0,0,0-2.82,1.71,4.65,4.65,0,0,0-.45,2.17,5,5,0,0,0,.26,1.69,3.58,3.58,0,0,0,.74,1.21,3.09,3.09,0,0,0,2.27,1,3.49,3.49,0,0,0,1.3-.24,2.7,2.7,0,0,0,1-.7,2.34,2.34,0,0,0,.55-1.1h1.33a3.76,3.76,0,0,1-1.41,2.27A4.38,4.38,0,0,1,341.32,369.48Z" transform="translate(-109.49 -218.91)"/><path class="cls-1" d="M348.65,357.41a.93.93,0,0,1-.68-.28.91.91,0,0,1-.29-.69.88.88,0,0,1,.28-.69,1,1,0,0,1,1.36,0,.88.88,0,0,1,.28.69.93.93,0,0,1-.27.69A.91.91,0,0,1,348.65,357.41ZM348,369.25v-9.58h1.33v9.58Z" transform="translate(-109.49 -218.91)"/><path class="cls-1" d="M355.25,369.48a4,4,0,0,1-1.93-.42,2.72,2.72,0,0,1-1.14-1.08,3,3,0,0,1-.37-1.47,2.71,2.71,0,0,1,.5-1.67,3,3,0,0,1,1.43-1,6.22,6.22,0,0,1,2.11-.34h2.59a4,4,0,0,0-.29-1.58,2.07,2.07,0,0,0-.82-1,2.52,2.52,0,0,0-1.38-.34,2.86,2.86,0,0,0-1.69.5,2.17,2.17,0,0,0-.88,1.44H352a3,3,0,0,1,.69-1.69,3.64,3.64,0,0,1,1.44-1,4.73,4.73,0,0,1,1.82-.36,4.16,4.16,0,0,1,2.16.51,3.07,3.07,0,0,1,1.25,1.37,4.79,4.79,0,0,1,.41,2v5.91h-1.22l-.06-1.75a3.23,3.23,0,0,1-.48.76,3.39,3.39,0,0,1-.68.63,3.33,3.33,0,0,1-.91.43A4.14,4.14,0,0,1,355.25,369.48Zm.15-1.18a2.73,2.73,0,0,0,1.27-.29,2.93,2.93,0,0,0,.95-.76,3.19,3.19,0,0,0,.61-1.08,3.74,3.74,0,0,0,.21-1.23v-.35H356a4.52,4.52,0,0,0-1.62.25,1.85,1.85,0,0,0-.87.67,1.71,1.71,0,0,0-.27,1,1.77,1.77,0,0,0,.26,1,1.63,1.63,0,0,0,.75.64A2.89,2.89,0,0,0,355.4,368.3Z" transform="translate(-109.49 -218.91)"/><path class="cls-1" d="M362.28,369.25V355.57h1.33v13.68Z" transform="translate(-109.49 -218.91)"/><path class="cls-1" d="M375.75,369.48a4.57,4.57,0,0,1-2.37-.63,4.47,4.47,0,0,1-1.66-1.76,6,6,0,0,1,0-5.26,4.66,4.66,0,0,1,1.66-1.75,4.58,4.58,0,0,1,2.37-.64,4.36,4.36,0,0,1,2.78.87A3.75,3.75,0,0,1,380,362.6h-1.33a2.24,2.24,0,0,0-1-1.47,3.29,3.29,0,0,0-1.87-.53,3.21,3.21,0,0,0-1.61.43,3.1,3.1,0,0,0-1.2,1.28,4.53,4.53,0,0,0-.46,2.17,4.79,4.79,0,0,0,.27,1.69,3.56,3.56,0,0,0,.73,1.21,3.26,3.26,0,0,0,1,.73,3.13,3.13,0,0,0,1.22.25,3.46,3.46,0,0,0,1.3-.24,2.7,2.7,0,0,0,1-.7,2.25,2.25,0,0,0,.55-1.1H380a3.76,3.76,0,0,1-1.41,2.27A4.34,4.34,0,0,1,375.75,369.48Z" transform="translate(-109.49 -218.91)"/><path class="cls-1" d="M382.23,369.25V355.57h1.33v13.68Z" transform="translate(-109.49 -218.91)"/><path class="cls-1" d="M390.36,369.48a4.27,4.27,0,0,1-3.94-2.39,5.66,5.66,0,0,1-.58-2.65,5.77,5.77,0,0,1,.57-2.64,4.11,4.11,0,0,1,1.61-1.74,4.56,4.56,0,0,1,2.38-.62,4.24,4.24,0,0,1,2.36.63,4.15,4.15,0,0,1,1.47,1.64,4.77,4.77,0,0,1,.5,2.2v.39a3.86,3.86,0,0,1,0,.46h-7.86v-1.12h6.59a2.94,2.94,0,0,0-3.1-3.06,3.32,3.32,0,0,0-1.57.39,3,3,0,0,0-1.19,1.14,3.62,3.62,0,0,0-.45,1.89v.5a4.47,4.47,0,0,0,.47,2.15,3.09,3.09,0,0,0,2.76,1.69,3,3,0,0,0,1.79-.49,2.69,2.69,0,0,0,1-1.34h1.31a4,4,0,0,1-.78,1.51,3.9,3.9,0,0,1-1.39,1.07A4.54,4.54,0,0,1,390.36,369.48Z" transform="translate(-109.49 -218.91)"/><path class="cls-1" d="M400,369.48a4,4,0,0,1-1.93-.42,2.84,2.84,0,0,1-1.14-1.08,3,3,0,0,1-.37-1.47,2.78,2.78,0,0,1,.5-1.67,3,3,0,0,1,1.43-1,6.24,6.24,0,0,1,2.12-.34h2.58a4,4,0,0,0-.28-1.58,2.09,2.09,0,0,0-.83-1,2.52,2.52,0,0,0-1.38-.34,2.86,2.86,0,0,0-1.69.5,2.12,2.12,0,0,0-.87,1.44h-1.39a3.17,3.17,0,0,1,.69-1.69,3.6,3.6,0,0,1,1.45-1,4.64,4.64,0,0,1,1.81-.36,4.11,4.11,0,0,1,2.16.51,3.07,3.07,0,0,1,1.25,1.37,4.65,4.65,0,0,1,.41,2v5.91h-1.21l-.06-1.75a4,4,0,0,1-.48.76,3.45,3.45,0,0,1-.69.63,3.41,3.41,0,0,1-.9.43A4.21,4.21,0,0,1,400,369.48Zm.15-1.18a2.77,2.77,0,0,0,1.28-.29,3.16,3.16,0,0,0,.95-.76,3.34,3.34,0,0,0,.6-1.08,3.74,3.74,0,0,0,.21-1.23v-.35h-2.49a4.42,4.42,0,0,0-1.61.25,1.83,1.83,0,0,0-.88.67,1.79,1.79,0,0,0-.26,1,1.76,1.76,0,0,0,.25,1,1.74,1.74,0,0,0,.75.64A2.89,2.89,0,0,0,400.11,368.3Z" transform="translate(-109.49 -218.91)"/><path class="cls-1" d="M407,369.25v-9.58h1.22l.07,1.71A3.42,3.42,0,0,1,409.6,360a3.65,3.65,0,0,1,1.93-.52,4,4,0,0,1,1.92.44,3,3,0,0,1,1.28,1.32,5,5,0,0,1,.45,2.25v5.8h-1.33v-5.64a3.34,3.34,0,0,0-.66-2.27,2.42,2.42,0,0,0-1.88-.74,2.92,2.92,0,0,0-1.53.41,2.82,2.82,0,0,0-1.07,1.19,4.27,4.27,0,0,0-.39,1.92v5.13Z" transform="translate(-109.49 -218.91)"/><path class="cls-1" d="M418.54,357.41a.93.93,0,0,1-.68-.28,1,1,0,0,1,0-1.38,1,1,0,0,1,.69-.26,1,1,0,0,1,.67.26.88.88,0,0,1,.28.69.93.93,0,0,1-.27.69A.9.9,0,0,1,418.54,357.41Zm-.66,11.84v-9.58h1.33v9.58Z" transform="translate(-109.49 -218.91)"/><path class="cls-1" d="M422.08,369.25v-9.58h1.22l.07,1.71a3.42,3.42,0,0,1,1.32-1.42,3.65,3.65,0,0,1,1.93-.52,4,4,0,0,1,1.92.44,3,3,0,0,1,1.27,1.32,4.82,4.82,0,0,1,.46,2.25v5.8h-1.33v-5.64a3.29,3.29,0,0,0-.67-2.27,2.4,2.4,0,0,0-1.88-.74,2.92,2.92,0,0,0-1.53.41,2.8,2.8,0,0,0-1.06,1.19,4.27,4.27,0,0,0-.39,1.92v5.13Z" transform="translate(-109.49 -218.91)"/><path class="cls-1" d="M436.48,373.66a7,7,0,0,1-2.25-.34,3.41,3.41,0,0,1-1.54-1,2.61,2.61,0,0,1-.56-1.69,3.15,3.15,0,0,1,.14-.87,2.85,2.85,0,0,1,.56-.94,4,4,0,0,1,1.18-.85l1.09.47a2.85,2.85,0,0,0-1.32,1,2.17,2.17,0,0,0-.3,1,1.72,1.72,0,0,0,.39,1.15,2.4,2.4,0,0,0,1.06.68,4.91,4.91,0,0,0,1.55.23,4,4,0,0,0,1.51-.25,2.08,2.08,0,0,0,1-.71,1.77,1.77,0,0,0,.35-1.08,1.54,1.54,0,0,0-.55-1.18,3.29,3.29,0,0,0-2-.56c-.77-.05-1.41-.12-1.91-.2a7.69,7.69,0,0,1-1.24-.31,4,4,0,0,1-.8-.39c-.2-.14-.4-.29-.59-.45V367l1.82-1.73,1.22.44-1.79,1.59.11-.51c.16.1.3.2.42.29a1.67,1.67,0,0,0,.53.21,8.58,8.58,0,0,0,.93.18c.4.05.94.11,1.62.16a6,6,0,0,1,2.09.45,2.51,2.51,0,0,1,1.14,1,2.76,2.76,0,0,1,.36,1.43,3,3,0,0,1-.44,1.55,3.38,3.38,0,0,1-1.37,1.2A5.18,5.18,0,0,1,436.48,373.66Zm0-7.45a4.1,4.1,0,0,1-2-.46,3.15,3.15,0,0,1-1.26-1.22,3.42,3.42,0,0,1-.44-1.7,3.35,3.35,0,0,1,.44-1.71,3.12,3.12,0,0,1,1.27-1.22,4.75,4.75,0,0,1,4.08,0,3.06,3.06,0,0,1,1.25,1.22,3.34,3.34,0,0,1,.43,1.71,3.41,3.41,0,0,1-.43,1.7,3.06,3.06,0,0,1-1.25,1.22A4.12,4.12,0,0,1,436.46,366.21Zm0-1.14a2.46,2.46,0,0,0,1.74-.58,2.5,2.5,0,0,0,0-3.34,2.5,2.5,0,0,0-1.74-.57,2.56,2.56,0,0,0-1.75.57,2.1,2.1,0,0,0-.66,1.68,2.12,2.12,0,0,0,.65,1.66A2.53,2.53,0,0,0,436.46,365.07Zm1.56-4.2-.47-1.2h3.87v1.09Z" transform="translate(-109.49 -218.91)"/><path class="cls-1" d="M185.8,345.11a41,41,0,0,1-21.46-5.55,38.22,38.22,0,0,1-14.45-15.48q-5.19-9.94-5.18-23.11a49,49,0,0,1,5.18-23,38.67,38.67,0,0,1,14.45-15.55,40.62,40.62,0,0,1,21.46-5.61q12.57,0,21.83,5.61A38.25,38.25,0,0,1,222,278a49.45,49.45,0,0,1,5.12,23q0,13.17-5.12,23.11a37.82,37.82,0,0,1-14.39,15.48Q198.36,345.11,185.8,345.11Zm.12-7.44a32.29,32.29,0,0,0,17-4.39,29.73,29.73,0,0,0,11.4-12.62q4.08-8.24,4.08-19.69t-4.08-19.64a29.92,29.92,0,0,0-11.4-12.56,34.94,34.94,0,0,0-33.91,0,29.92,29.92,0,0,0-11.4,12.56q-4.08,8.18-4.08,19.64t4.08,19.69A29.73,29.73,0,0,0,169,333.28,32.28,32.28,0,0,0,185.92,337.67Z" transform="translate(-109.49 -218.91)"/><path class="cls-1" d="M224.7,343.65l31.47-85.36H265l31.46,85.36h-9l-26.82-74.14-26.83,74.14Zm14.39-23,2.56-7.07h37.68l2.57,7.07Z" transform="translate(-109.49 -218.91)"/><path class="cls-1" d="M330.43,345.11a36.35,36.35,0,0,1-16.28-3.41,24.69,24.69,0,0,1-10.55-9.58A27,27,0,0,1,299.94,318h8.9a20.51,20.51,0,0,0,2.44,9.88,18.51,18.51,0,0,0,7.2,7.25,23.61,23.61,0,0,0,11.95,2.75,23.9,23.9,0,0,0,10.67-2.14,16.31,16.31,0,0,0,6.64-5.67,14.3,14.3,0,0,0,2.32-8.05,15,15,0,0,0-2.25-8.65,16.92,16.92,0,0,0-6.16-5.37,51.52,51.52,0,0,0-8.84-3.6q-4.95-1.51-10.43-3.35-9.88-3.42-14.51-8.42a18.53,18.53,0,0,1-4.76-12.8A22.7,22.7,0,0,1,306.22,268a21.5,21.5,0,0,1,9.09-8.17,31.3,31.3,0,0,1,14.14-3,30.32,30.32,0,0,1,13.84,3,22.08,22.08,0,0,1,12.5,20.43H347a16,16,0,0,0-8-13.72A19.28,19.28,0,0,0,329,264.14a21,21,0,0,0-8.85,1.77,13.73,13.73,0,0,0-8.23,13,12.34,12.34,0,0,0,1.95,7.2,14.76,14.76,0,0,0,5.49,4.63,54.39,54.39,0,0,0,8.29,3.36q4.75,1.51,10.61,3.47a51.61,51.61,0,0,1,10.61,5,21.87,21.87,0,0,1,7.32,7.5,22.49,22.49,0,0,1,2.68,11.53,22.22,22.22,0,0,1-3.11,11.34,23.38,23.38,0,0,1-9.45,8.78Q339.94,345.11,330.43,345.11Z" transform="translate(-109.49 -218.91)"/><path class="cls-1" d="M368,343.65V258.29h8.53v85.36Z" transform="translate(-109.49 -218.91)"/><path class="cls-1" d="M416,345.11a36.38,36.38,0,0,1-16.28-3.41,24.69,24.69,0,0,1-10.55-9.58A27.11,27.11,0,0,1,385.55,318h8.9a20.4,20.4,0,0,0,2.44,9.88,18.41,18.41,0,0,0,7.19,7.25,27.49,27.49,0,0,0,22.62.61,16.34,16.34,0,0,0,6.65-5.67,14.38,14.38,0,0,0,2.32-8.05,15,15,0,0,0-2.26-8.65,16.84,16.84,0,0,0-6.16-5.37,51.19,51.19,0,0,0-8.84-3.6q-4.94-1.51-10.43-3.35-9.87-3.42-14.51-8.42a18.52,18.52,0,0,1-4.75-12.8A22.61,22.61,0,0,1,391.83,268a21.48,21.48,0,0,1,9.08-8.17,31.31,31.31,0,0,1,14.15-3,30.38,30.38,0,0,1,13.84,3,22.08,22.08,0,0,1,12.5,20.43h-8.78a16,16,0,0,0-8-13.72,19.26,19.26,0,0,0-10.06-2.38,20.92,20.92,0,0,0-8.84,1.77,13.69,13.69,0,0,0-8.23,13,12.34,12.34,0,0,0,1.95,7.2,14.76,14.76,0,0,0,5.49,4.63,54,54,0,0,0,8.29,3.36q4.75,1.51,10.61,3.47a51.86,51.86,0,0,1,10.61,5,21.93,21.93,0,0,1,7.31,7.5,24,24,0,0,1-.42,22.87,23.51,23.51,0,0,1-9.45,8.78Q425.55,345.11,416,345.11Z" transform="translate(-109.49 -218.91)"/><path class="cls-2" d="M133.06,225h0c-.84,5.23-2.48,18.79-5.9,22.51a26.42,26.42,0,0,1-13.66,6.63,1.15,1.15,0,0,0,0,2.27A26.33,26.33,0,0,1,127.16,263c3.42,3.72,5.35,22.62,6.19,27.85a1.15,1.15,0,0,0,2.27,0c.85-5.23,3.64-24.13,7.06-27.85a26.33,26.33,0,0,1,13.66-6.62h0a1.15,1.15,0,0,0,0-2.27h0a26.42,26.42,0,0,1-13.66-6.63c-3.42-3.72-6.5-17.28-7.35-22.51a1.15,1.15,0,0,0-2.27,0" transform="translate(-109.49 -218.91)"/><path class="cls-2" d="M119.12,219.36h0c-.4,2.46-1.16,8.82-2.77,10.57a12.31,12.31,0,0,1-6.41,3.1.54.54,0,0,0,0,1.07,12.32,12.32,0,0,1,6.41,3.11c1.61,1.74,2.51,10.61,2.91,13.06a.54.54,0,0,0,1.06,0c.4-2.45,1.71-11.32,3.31-13.06A12.4,12.4,0,0,1,130,234.1h0a.54.54,0,0,0,0-1.07h0a12.38,12.38,0,0,1-6.41-3.1c-1.6-1.75-3-8.11-3.44-10.57a.54.54,0,0,0-1.07,0" transform="translate(-109.49 -218.91)"/></svg>